<svg width="59" height="62" viewBox="0 0 59 62" fill="none" xmlns="http://www.w3.org/2000/svg">
<g id="logo">
<path id="logo_2" fill-rule="evenodd" clip-rule="evenodd" d="M30.3279 0.510606C31.4047 0.552124 32.7643 0.648999 33.3566 0.718195C33.9489 0.787391 35.1335 1.00882 35.9815 1.20257C36.8296 1.39632 38.1353 1.75614 38.8757 2.01908C39.616 2.26819 40.9217 2.79408 41.7698 3.18157C42.6178 3.56907 43.9505 4.27487 44.7178 4.75924C45.4716 5.22978 46.7504 6.11549 47.5446 6.72441C48.3253 7.33334 49.6715 8.53735 50.5195 9.42306C51.381 10.2949 52.5521 11.6788 53.1444 12.4815C53.7367 13.298 54.6117 14.6404 55.0963 15.457C55.5674 16.2873 56.2674 17.6435 56.6308 18.4877C56.9808 19.3181 57.4789 20.6328 57.7212 21.394C57.9635 22.1551 58.3135 23.4975 58.5019 24.3694C58.6904 25.2413 58.8788 26.3207 59 27.5524L57.7481 27.5109C56.5366 27.4832 56.5097 27.4694 56.4693 27.1372C56.4559 26.9435 56.3078 26.1408 56.1597 25.3381C55.9982 24.5355 55.6347 23.1377 55.3386 22.2243C55.0559 21.3109 54.4501 19.8163 54.0194 18.9029C53.5886 17.9895 52.8214 16.5918 52.3098 15.7891C51.7983 14.9864 50.9233 13.7686 50.358 13.0904C49.8061 12.3985 48.8773 11.3744 48.285 10.807C47.7061 10.2257 46.885 9.49225 46.4812 9.16011C46.0773 8.82797 45.1081 8.12217 44.3274 7.58244C43.5467 7.05655 42.1871 6.26772 41.2987 5.82486C40.4102 5.38201 38.9564 4.75924 38.068 4.46862C37.1796 4.16416 35.8469 3.7905 35.1065 3.62443C34.3662 3.4722 33.2489 3.27845 32.6162 3.19541C31.9836 3.12622 30.5971 3.05702 29.5202 3.05702C28.4433 3.05702 27.0568 3.12622 26.4241 3.19541C25.7915 3.27845 24.6742 3.4722 23.9338 3.62443C23.1935 3.7905 21.8608 4.16416 20.9724 4.46862C20.084 4.75924 18.6302 5.38201 17.7417 5.82486C16.8533 6.26772 15.4937 7.05655 14.713 7.58244C13.9322 8.12217 12.963 8.82797 12.5592 9.16011C12.1554 9.49225 11.4016 10.1704 10.89 10.6686C10.3785 11.1668 9.50354 12.094 8.95163 12.7445C8.39973 13.3949 7.47091 14.6681 6.87862 15.5815C6.27287 16.4949 5.43828 17.9895 5.00753 18.9029C4.57677 19.8163 3.98449 21.3109 3.7018 22.2243C3.40566 23.1377 3.04221 24.5355 2.88068 25.3381C2.7326 26.1408 2.58453 26.9435 2.57107 27.1372C2.53069 27.4694 2.50376 27.4832 0.0403833 27.5524L0.12115 26.7497C0.161533 26.3207 0.349989 25.2413 0.538444 24.3694C0.726899 23.4975 1.07689 22.1551 1.31919 21.394C1.56149 20.6328 2.05955 19.3181 2.40954 18.4877C2.77299 17.6435 3.47296 16.2873 3.9441 15.457C4.4287 14.6404 5.30367 13.298 5.89596 12.4815C6.48825 11.6788 7.65937 10.2949 8.52088 9.42306C9.36893 8.55119 10.6747 7.36101 11.415 6.79361C12.1554 6.21236 13.313 5.39585 13.9726 4.98067C14.6322 4.55166 15.5745 3.99809 16.0591 3.74898C16.5437 3.49988 17.5667 3.02934 18.3475 2.6972C19.1282 2.3789 20.3936 1.92221 21.1743 1.68694C21.9551 1.46551 23.2473 1.14721 24.0684 0.98114C24.8896 0.828908 26.1818 0.648999 26.9626 0.579803C27.7433 0.510606 29.251 0.482928 30.3279 0.510606ZM29.3183 6.94584C30.274 6.94584 31.5797 7.0012 32.2124 7.08423C32.8451 7.15343 33.8143 7.3195 34.3662 7.43021C34.9181 7.55476 36.1027 7.8869 36.9911 8.19137C37.8795 8.49583 39.2122 9.06324 39.9525 9.4369C40.6929 9.81055 41.8775 10.5302 42.5775 11.0146C43.2774 11.4989 44.3678 12.3431 45.0005 12.9105C45.6197 13.4641 46.5754 14.4467 47.1273 15.0971C47.6658 15.7476 48.5003 16.8686 48.9715 17.5882C49.4426 18.3078 50.1426 19.5257 50.506 20.2868C50.8695 21.048 51.4214 22.4181 51.7175 23.3315C52.0137 24.2449 52.3502 25.4765 52.4579 26.0578C52.5791 26.6529 52.6733 27.2341 52.6733 27.3448C52.6733 27.5109 52.431 27.5524 49.8465 27.5524L49.6984 26.7497C49.6176 26.3207 49.3619 25.3658 49.1465 24.6462C48.9176 23.9265 48.4734 22.7364 48.1369 22.0167C47.8138 21.2971 47.1542 20.1069 46.6831 19.3873C46.212 18.6676 45.4447 17.602 44.9601 17.0346C44.4889 16.4672 43.587 15.5538 42.9678 15.0141C42.3486 14.4744 41.3256 13.6855 40.6929 13.2565C40.0602 12.8413 39.1314 12.2878 38.6064 12.011C38.0814 11.748 37.0315 11.3052 36.2507 11.0284C35.47 10.7516 34.2316 10.378 33.4912 10.2257C32.3739 9.97663 31.7009 9.92127 29.5202 9.92127C27.3395 9.92127 26.6664 9.97663 25.5492 10.2257C24.8088 10.378 23.5704 10.7516 22.7896 11.0284C22.0089 11.3052 20.9589 11.748 20.434 12.011C19.909 12.2878 18.9802 12.8413 18.3475 13.2565C17.7148 13.6855 16.6918 14.4744 16.0726 15.0141C15.4533 15.5538 14.5514 16.4672 14.0803 17.0346C13.5957 17.602 12.8284 18.6676 12.3573 19.3873C11.8862 20.1069 11.2266 21.2971 10.9035 22.0167C10.567 22.7364 10.1227 23.9265 9.89391 24.6462C9.67853 25.3658 9.42277 26.3207 9.19393 27.5524H7.78052C6.6094 27.5524 6.3671 27.5109 6.3671 27.3448C6.3671 27.2341 6.46133 26.6529 6.58248 26.0578C6.69017 25.4765 7.02669 24.2449 7.32284 23.3315C7.61898 22.4181 8.17089 21.048 8.53434 20.2868C8.89779 19.5257 9.59776 18.3078 10.0689 17.5882C10.54 16.8686 11.3612 15.7476 11.9131 15.0971C12.4515 14.4605 13.4073 13.4779 14.0399 12.9105C14.6726 12.357 15.7629 11.4989 16.4629 11.0146C17.1629 10.5302 18.3475 9.81055 19.0878 9.4369C19.8282 9.06324 21.1608 8.49583 22.0493 8.19137C22.9377 7.8869 24.1492 7.54092 24.7415 7.41637C25.3338 7.29182 26.2088 7.15343 26.6934 7.08423C27.178 7.01503 28.3625 6.95968 29.3183 6.94584ZM29.4529 21.4632C30.3952 21.4632 31.1221 21.5462 31.8759 21.74C32.4682 21.906 33.3701 22.2658 33.8816 22.5426C34.3931 22.8194 35.2142 23.4283 35.6988 23.8989C36.1834 24.3556 36.843 25.1444 37.1526 25.6288C37.4757 26.1131 37.9065 27.0404 38.1353 27.6908C38.3507 28.3413 38.5795 29.2823 38.741 30.7354H44.5966V31.3167C44.5966 31.6488 44.5024 32.5069 44.3947 33.2265C44.3005 33.9461 44.0582 35.0256 43.8697 35.6068C43.6678 36.2019 43.3044 37.143 43.0351 37.6827C42.7659 38.2363 42.2679 39.122 41.9179 39.6617C41.5813 40.1876 40.841 41.0872 40.2891 41.6684C39.7372 42.2497 38.8218 43.0523 38.2699 43.4537C37.718 43.855 36.843 44.4086 36.318 44.6715C35.7931 44.9483 34.8642 45.3358 34.2316 45.5434C33.5989 45.751 32.6297 46.0001 32.0778 46.097C31.5259 46.2077 30.3682 46.2769 29.5202 46.2769C28.6721 46.2769 27.5145 46.2077 26.9626 46.097C26.4107 46.0001 25.4415 45.751 24.8088 45.5434C24.1761 45.3358 23.2473 44.9483 22.7223 44.6715C22.1974 44.4086 21.3224 43.855 20.7705 43.4537C20.2186 43.0523 19.3032 42.2497 18.7513 41.6684C18.1994 41.0872 17.459 40.1876 17.1225 39.6617C16.7725 39.122 16.2745 38.2363 16.0052 37.6827C15.736 37.143 15.3726 36.2019 15.1707 35.6068C14.9822 35.0256 14.7399 33.9461 14.6457 33.2265C14.538 32.5069 14.4438 31.6488 14.4438 30.7354H20.2993L20.407 29.8082C20.4609 29.2823 20.6897 28.3413 20.9051 27.6908C21.1339 27.0404 21.5647 26.1131 21.8877 25.6288C22.1974 25.1444 22.8569 24.3556 23.3415 23.8989C23.8261 23.4283 24.6473 22.8194 25.1588 22.5426C25.6703 22.2658 26.5453 21.906 27.0972 21.7538C27.7702 21.5739 28.5645 21.477 29.4529 21.4632ZM20.5551 31.7319C20.6089 32.2162 20.7974 33.0743 20.9859 33.6417C21.1608 34.2091 21.5243 35.081 21.807 35.5653C22.1031 36.0635 22.7896 36.8939 23.4089 37.5028C24.1627 38.2363 24.8088 38.7068 25.5222 39.0666C26.0876 39.3573 26.9626 39.6894 27.4606 39.814C27.9722 39.9385 28.8875 40.0354 29.5202 40.0354C30.1529 40.0354 31.0682 39.9385 31.5663 39.814C32.0778 39.6894 32.8316 39.4126 33.2489 39.205C33.6797 38.9974 34.2989 38.6238 34.6354 38.3885C34.9719 38.1533 35.5911 37.5858 36.0084 37.143C36.4257 36.7001 36.9911 35.9667 37.2603 35.51C37.5295 35.0533 37.8795 34.2091 38.0545 33.6417C38.243 33.0743 38.4314 32.2162 38.4987 31.7319L38.6064 30.8738H20.4609L20.5551 31.7319ZM0 34.4582H9.19393L9.342 35.2609C9.42277 35.7037 9.66507 36.6448 9.89391 37.3644C10.1093 38.0979 10.6477 39.4265 11.0785 40.3399C11.5227 41.2532 12.29 42.5956 12.788 43.3153C13.2861 44.0349 14.2822 45.2251 14.9822 45.9447C15.6822 46.6782 16.8398 47.6885 17.5398 48.2005C18.2398 48.7126 19.5455 49.5014 20.434 49.9581C21.3224 50.401 22.6146 50.9545 23.3281 51.1898C24.0281 51.4112 25.1453 51.7157 25.8184 51.8541C26.7203 52.034 27.6491 52.1032 29.5202 52.1032C31.3778 52.1032 32.3066 52.034 33.222 51.8541C33.8816 51.7157 34.9989 51.4112 35.7123 51.1898C36.4123 50.9545 37.718 50.401 38.6064 49.9581C39.4949 49.5014 40.7871 48.7126 41.4871 48.2005C42.1871 47.6885 43.3447 46.6644 44.0447 45.9447C44.7582 45.2113 45.7408 44.0349 46.2389 43.3153C46.7369 42.5956 47.5042 41.2532 47.9484 40.3399C48.3927 39.4265 48.9176 38.0979 49.1465 37.3644C49.3619 36.6448 49.6176 35.7037 49.8465 34.4582H59L58.9192 35.2609C58.8789 35.7037 58.6904 36.7693 58.5019 37.6412C58.3135 38.5269 57.9635 39.8555 57.7212 40.6166C57.4789 41.3778 56.9808 42.6925 56.6174 43.5229C56.2539 44.3671 55.5674 45.7233 55.0828 46.5537C54.6117 47.384 53.7367 48.7264 53.1444 49.5291C52.5521 50.3456 51.3676 51.7157 50.5195 52.6014C49.6715 53.4733 48.3253 54.6911 47.5311 55.3C46.7504 55.909 45.4716 56.7947 44.7043 57.2652C43.937 57.7357 42.6178 58.4415 41.7698 58.8429C40.9083 59.2304 39.616 59.7563 38.8757 60.0054C38.1353 60.2545 36.8296 60.6143 35.9815 60.808C35.12 61.0018 33.8547 61.2371 33.1547 61.3339C32.4412 61.4308 30.8125 61.5 29.5202 61.5C28.2145 61.5 26.5857 61.4308 25.8857 61.3339C25.1723 61.2371 23.9069 61.0018 23.0589 60.808C22.1974 60.6143 20.9051 60.2545 20.1647 60.0054C19.4244 59.7563 18.1186 59.2304 17.2706 58.8429C16.4091 58.4415 15.0899 57.7357 14.3226 57.2652C13.5553 56.7947 12.29 55.909 11.4958 55.3C10.715 54.6911 9.36893 53.4733 8.50741 52.6014C7.65937 51.7157 6.47479 50.3456 5.8825 49.5291C5.30367 48.7264 4.4287 47.384 3.9441 46.5537C3.4595 45.7233 2.77299 44.3671 2.40954 43.5229C2.04609 42.6925 1.54803 41.3778 1.30573 40.6166C1.06343 39.8555 0.713438 38.5269 0.524983 37.6412C0.336527 36.7693 0.148072 35.7037 0.0942277 35.2609L0 34.4582Z" fill="#532ADC"/>
</g>
</svg>
